<svg width="25" height="24" viewBox="0 0 25 24" fill="none" xmlns="http://www.w3.org/2000/svg">
<path d="M12.3535 24C5.73845 24 0.353455 18.615 0.353455 12C0.353455 5.385 5.73845 0 12.3535 0C18.9685 0 24.3535 5.385 24.3535 12C24.3535 18.615 18.9685 24 12.3535 24ZM22.4735 13.642C22.1235 13.532 19.3035 12.689 16.0895 13.204C17.4295 16.888 17.9765 19.888 18.0815 20.512C20.3815 18.957 22.0175 16.492 22.4765 13.642H22.4735ZM16.3585 21.45C16.2055 20.55 15.6085 17.418 14.1685 13.68L14.1025 13.7C8.31245 15.715 6.24245 19.725 6.06245 20.1C7.79245 21.458 9.98245 22.266 12.3525 22.266C13.7725 22.266 15.1225 21.976 16.3525 21.452L16.3585 21.45ZM4.73845 18.87C4.97045 18.47 7.78345 13.815 13.0705 12.105C13.2055 12.06 13.3405 12.021 13.4755 11.985C13.2155 11.4 12.9355 10.818 12.6435 10.245C7.52345 11.775 2.55945 11.71 2.10945 11.7L2.10545 12.012C2.10545 14.645 3.10345 17.049 4.73945 18.867L4.73845 18.87ZM2.31845 9.915C2.77845 9.923 7.00145 9.941 11.7955 8.667C10.0975 5.649 8.26545 3.109 7.99545 2.739C5.12745 4.089 2.98545 6.729 2.31945 9.909L2.31845 9.915ZM9.95345 2.052C10.2355 2.432 12.0985 4.966 13.7755 8.052C17.4205 6.687 18.9655 4.612 19.1485 4.35C17.3385 2.74 14.9585 1.764 12.3535 1.764C11.5285 1.764 10.7235 1.864 9.95345 2.049V2.052ZM20.2885 5.535C20.0705 5.825 18.3535 8.028 14.5645 9.575C14.8045 10.065 15.0345 10.56 15.2445 11.061C15.3245 11.241 15.3945 11.421 15.4645 11.591C18.8745 11.161 22.2645 11.851 22.6045 11.921C22.5845 9.501 21.7245 7.281 20.2945 5.541L20.2885 5.535Z" fill="black"/>
</svg>