<svg width="25" height="24" viewBox="0 0 25 24" fill="none" xmlns="http://www.w3.org/2000/svg">
<path d="M12.3535 0C9.09345 0 8.68645 0.015 7.40645 0.072C6.12845 0.132 5.25845 0.333 4.49345 0.63C3.70445 0.936 3.03445 1.347 2.36745 2.014C1.70045 2.681 1.28845 3.35 0.983455 4.14C0.686455 4.905 0.484455 5.775 0.425455 7.053C0.365455 8.333 0.353455 8.74 0.353455 12C0.353455 15.26 0.368455 15.667 0.425455 16.947C0.485455 18.224 0.686455 19.095 0.983455 19.86C1.28945 20.648 1.70045 21.319 2.36745 21.986C3.03445 22.652 3.70345 23.065 4.49345 23.37C5.25945 23.666 6.12945 23.869 7.40645 23.928C8.68645 23.988 9.09345 24 12.3535 24C15.6135 24 16.0205 23.985 17.3005 23.928C18.5775 23.868 19.4485 23.666 20.2135 23.37C21.0015 23.064 21.6725 22.652 22.3395 21.986C23.0055 21.319 23.4185 20.651 23.7235 19.86C24.0195 19.095 24.2225 18.224 24.2815 16.947C24.3415 15.667 24.3535 15.26 24.3535 12C24.3535 8.74 24.3385 8.333 24.2815 7.053C24.2215 5.776 24.0195 4.904 23.7235 4.14C23.4175 3.351 23.0055 2.681 22.3395 2.014C21.6725 1.347 21.0045 0.935 20.2135 0.63C19.4485 0.333 18.5775 0.131 17.3005 0.072C16.0205 0.012 15.6135 0 12.3535 0ZM12.3535 2.16C15.5565 2.16 15.9385 2.176 17.2035 2.231C18.3735 2.286 19.0085 2.48 19.4305 2.646C19.9925 2.863 20.3905 3.123 20.8125 3.542C21.2315 3.962 21.4915 4.361 21.7085 4.923C21.8725 5.345 22.0685 5.98 22.1215 7.15C22.1785 8.416 22.1915 8.796 22.1915 12C22.1915 15.204 22.1765 15.585 22.1175 16.85C22.0565 18.02 21.8615 18.655 21.6965 19.077C21.4725 19.639 21.2175 20.037 20.7975 20.459C20.3785 20.878 19.9735 21.138 19.4175 21.355C18.9975 21.519 18.3525 21.715 17.1825 21.768C15.9085 21.825 15.5335 21.838 12.3235 21.838C9.11246 21.838 8.73745 21.823 7.46445 21.764C6.29345 21.703 5.64845 21.508 5.22845 21.343C4.65945 21.119 4.26845 20.864 3.84945 20.444C3.42845 20.025 3.15945 19.62 2.94945 19.064C2.78445 18.644 2.59045 17.999 2.52945 16.829C2.48445 15.569 2.46845 15.18 2.46845 11.985C2.46845 8.789 2.48445 8.399 2.52945 7.124C2.59045 5.954 2.78445 5.31 2.94945 4.89C3.15945 4.32 3.42845 3.93 3.84945 3.509C4.26845 3.09 4.65945 2.82 5.22845 2.611C5.64845 2.445 6.27945 2.25 7.44945 2.19C8.72445 2.145 9.09945 2.13 12.3085 2.13L12.3535 2.16ZM12.3535 5.838C8.94845 5.838 6.19145 8.598 6.19145 12C6.19145 15.405 8.95145 18.162 12.3535 18.162C15.7585 18.162 18.5155 15.402 18.5155 12C18.5155 8.595 15.7555 5.838 12.3535 5.838ZM12.3535 16C10.1435 16 8.35345 14.21 8.35345 12C8.35345 9.79 10.1435 8 12.3535 8C14.5635 8 16.3535 9.79 16.3535 12C16.3535 14.21 14.5635 16 12.3535 16ZM20.1995 5.595C20.1995 6.39 19.5535 7.035 18.7595 7.035C17.9645 7.035 17.3195 6.389 17.3195 5.595C17.3195 4.801 17.9655 4.156 18.7595 4.156C19.5525 4.155 20.1995 4.801 20.1995 5.595Z" fill="black"/>
</svg>