<svg width="25" height="24" viewBox="0 0 25 24" fill="none" xmlns="http://www.w3.org/2000/svg">
<path d="M13.8935 12.0002C13.8989 13.8019 13.1889 15.5321 11.9196 16.8108C10.6502 18.0896 8.92528 18.8122 7.12355 18.8202C5.32181 18.8122 3.59687 18.0896 2.32753 16.8108C1.05819 15.5321 0.348228 13.8019 0.353545 12.0002C0.348228 10.1984 1.05819 8.46822 2.32753 7.18951C3.59687 5.91079 5.32181 5.18812 7.12355 5.18018C8.92528 5.18812 10.6502 5.91079 11.9196 7.18951C13.1889 8.46822 13.8989 10.1984 13.8935 12.0002ZM21.3135 12.0002C21.3135 15.5402 19.8035 18.4202 17.9335 18.4202C16.0635 18.4202 14.5435 15.5402 14.5435 12.0002C14.5435 8.46018 16.0635 5.58018 17.9335 5.58018C19.8035 5.58018 21.3135 8.46018 21.3135 12.0002ZM24.3535 12.0002C24.3535 15.1702 23.8235 17.7502 23.1635 17.7502C22.5035 17.7502 21.9735 15.1702 21.9735 12.0002C21.9735 8.83018 22.5035 6.25018 23.1635 6.25018C23.8235 6.25018 24.3535 8.83018 24.3535 12.0002Z" fill="black"/>
</svg>