<svg width="25" height="24" viewBox="0 0 25 24" fill="none" xmlns="http://www.w3.org/2000/svg">
<path d="M24.3065 4.57009C23.4079 4.96569 22.4561 5.22683 21.4815 5.34509C22.5076 4.72834 23.2759 3.76113 23.6445 2.62209C22.6935 3.17709 21.6395 3.58109 20.5175 3.80609C19.7772 3.01452 18.7963 2.48951 17.7271 2.31259C16.6579 2.13567 15.5602 2.31674 14.6044 2.82768C13.6486 3.33862 12.8883 4.15084 12.4415 5.13821C11.9947 6.12558 11.8864 7.23286 12.1335 8.28809C8.04345 8.09509 4.42045 6.13009 1.99345 3.16209C1.55225 3.9119 1.32212 4.76711 1.32745 5.63709C1.32745 7.34709 2.19745 8.85009 3.51545 9.73309C2.73431 9.70822 1.97043 9.49702 1.28745 9.11709V9.17709C1.28701 10.3135 1.67972 11.415 2.39896 12.2948C3.1182 13.1747 4.11967 13.7786 5.23345 14.0041C4.51175 14.1975 3.75587 14.2265 3.02145 14.0891C3.33758 15.0671 3.95112 15.922 4.77647 16.5346C5.60182 17.1471 6.59781 17.4868 7.62545 17.5061C5.88498 18.872 3.73593 19.6134 1.52345 19.6111C1.13345 19.6111 0.744455 19.5881 0.353455 19.5441C2.60916 20.9884 5.23197 21.7551 7.91045 21.7531C16.9635 21.7531 21.9085 14.2571 21.9085 7.76809C21.9085 7.55809 21.9085 7.34809 21.8935 7.13809C22.8594 6.44295 23.6927 5.57991 24.3535 4.59009L24.3065 4.57009Z" fill="black"/>
</svg>